<?xml version="1.0" encoding="UTF-8"?>
<svg width="24px" height="24px" viewBox="0 0 24 24" version="1.1" xmlns="http://www.w3.org/2000/svg" xmlns:xlink="http://www.w3.org/1999/xlink">
    <!-- Generator: Sketch 59.1 (86144) - https://sketch.com -->
    <title>9. Icons / Text Align Left</title>
    <desc>Created with Sketch.</desc>
    <g id="9.-Icons-/-Text-Align-Left" stroke="none" stroke-width="1" fill="none" fill-rule="evenodd">
        <path d="M15,15 L3,15 L3,17 L15,17 L15,15 L15,15 Z M15,7 L3,7 L3,9 L15,9 L15,7 L15,7 Z M3,13 L21,13 L21,11 L3,11 L3,13 L3,13 Z M3,21 L21,21 L21,19 L3,19 L3,21 L3,21 Z M3,3 L3,5 L21,5 L21,3 L3,3 L3,3 Z" id="🔷-Icon-Color" fill="#686868"></path>
    </g>
</svg>